<?xml version="1.0" encoding="UTF-8"?>
<svg xmlns="http://www.w3.org/2000/svg" id="Layer_1" data-name="Layer 1" viewBox="0 0 24 24" width="512" height="512"><path d="M14.5,7c-1,0-1.87,.37-2.5,.99-.63-.62-1.5-.99-2.5-.99-1.93,0-3.5,1.66-3.5,3.7,0,3.26,4.87,6.74,5.43,7.12l.57,.4,.57-.4c.56-.39,5.43-3.87,5.43-7.12,0-2.04-1.57-3.7-3.5-3.7Zm-2.5,8.76c-1.74-1.33-4-3.56-4-5.06,0-.94,.67-1.7,1.5-1.7,.75,0,1.5,.45,1.5,1.45v.55h2v-.55c0-1,.75-1.45,1.5-1.45,.83,0,1.5,.76,1.5,1.7,0,1.5-2.26,3.73-4,5.06ZM12,0C5.38,0,0,5.38,0,12s5.38,12,12,12,12-5.38,12-12S18.62,0,12,0Zm0,22c-5.51,0-10-4.49-10-10S6.49,2,12,2s10,4.49,10,10-4.49,10-10,10Z"/></svg>
